<?xml version="1.0" encoding="UTF-8"?>
<svg id="_レイヤー_2" data-name="レイヤー 2" xmlns="http://www.w3.org/2000/svg" viewBox="0 0 544.29 545.48">
  <defs>
    <style>
      .cls-1 {
        fill: #fff;
      }

      .cls-2 {
        fill: #e4007f;
      }

      .cls-3 {
        fill: #2ea7e0;
      }

      .cls-4 {
        fill: #1a1a1a;
      }
    </style>
  </defs>
  <g id="_レイヤー_1-2" data-name="レイヤー 1">
    <g>
      <path class="cls-3" d="m369.58,181.83h79.95c5.33,0,8.88-2.37,9.48-7.7l29.02-123.78v-3.55c0-4.15-2.37-6.52-7.11-6.52h-78.77c-4.15,0-8.29,2.96-8.88,7.11l-31.39,124.97c-.59,1.18-.59,2.37-.59,3.55,0,3.55,2.37,5.92,8.29,5.92Z"/>
      <path class="cls-2" d="m85.29,174.13c.59,5.33,4.74,7.7,9.47,7.7h81.14c5.33,0,7.7-2.37,7.7-6.51,0-1.18,0-2.37-.59-2.96l-31.98-124.97c-1.18-4.14-3.55-7.11-8.88-7.11h-77.59c-5.92,0-8.29,2.96-8.29,7.11,0,.59,0,1.78.59,2.96l28.43,123.78Z"/>
      <path class="cls-1" d="m500.46,210.85h-176.49V44.42c0-6.52-2.96-10.66-9.48-10.66h-84.1c-7.11,0-10.07,4.14-10.07,10.07v167.02H43.83c-6.51,0-9.48,3.55-9.48,10.07v66.93c0,6.51,2.96,9.48,9.48,9.48h114.31l-114.31,92.39c-4.14,2.96-4.74,7.11-4.74,11.84v95.36c0,4.14,0,5.92,2.37,5.92,1.18,0,2.37-1.18,4.14-2.37l178.27-147.48v148.66c0,6.51,2.96,9.47,9.48,9.47h77.59c6.52,0,10.07-2.96,10.07-10.07v-148.07l177.09,147.48c2.37,1.18,3.55,2.37,4.74,2.37,2.37,0,3.55-1.78,3.55-6.51v-94.76c0-4.74-1.78-8.88-5.92-11.84l-113.12-92.39h113.12c5.92,0,10.07-2.96,10.07-9.48v-66.33c0-7.11-4.14-10.66-10.07-10.66Z"/>
      <path class="cls-4" d="m500.46,177.09h-7.1c2.96-12.44,8.88-36.72,14.8-61.01l9.48-40.86,2.96-14.21c1.18-7.11,1.78-12.44,1.78-14.21,0-31.39-27.25-40.87-41.46-40.87h-78.77c-26.06,0-38.5,18.95-41.46,34.35l-5.92,19.55v-15.4c0-18.95-12.44-44.42-43.23-44.42h-78.18c-24.88,0-43.83,18.95-43.83,43.83v15.99l-5.33-20.14c-4.14-18.36-18.95-33.76-42.05-33.76h-77.59c-11.84,0-42.64,7.11-42.64,41.46,0,1.18.59,5.92,1.78,13.62,1.18,3.55,1.78,8.29,2.96,14.21l23.69,101.87h-6.51c-28.43,0-43.83,21.91-43.83,43.82v66.93c0,25.47,18.36,43.83,43.83,43.83h20.14l-42.05,31.98c-12.44,10.66-17.18,23.1-17.18,37.9v95.36c0,15.99,14.21,40.86,37.31,40.27h7.7l7.1-3.55c2.37-1.18,8.29-4.74,15.99-11.25,26.65-21.32,52.71-42.64,78.18-63.97l38.5-31.98v75.22c0,28.43,21.92,43.82,43.83,43.82h77.59c25.47,0,43.83-18.36,43.83-44.42v-74.63l39.09,31.98c20.73,17.77,42.05,34.95,58.04,47.97,6.51,5.33,31.39,26.65,38.5,27.84l5.92,2.96h5.92c23.1,0,37.9-24.29,37.9-40.87v-94.76c0-18.36-8.29-29.61-17.77-37.9l-42.05-31.98h20.14c24.88,0,43.83-18.95,43.83-43.83v-66.33c0-22.51-15.4-44.42-43.83-44.42Zm-138.59-4.74l31.39-124.97c.59-4.14,4.74-7.11,8.88-7.11h78.77c4.74,0,7.11,2.37,7.11,6.52v3.55l-29.02,123.78c-.59,5.33-4.15,7.7-9.48,7.7h-79.95c-5.92,0-8.29-2.37-8.29-5.92,0-1.18,0-2.37.59-3.55ZM64.56,40.27h77.59c5.33,0,7.7,2.96,8.88,7.11l31.98,124.97c.59.59.59,1.78.59,2.96,0,4.14-2.37,6.51-7.7,6.51h-81.14c-4.74,0-8.88-2.37-9.47-7.7l-28.43-123.78c-.59-1.18-.59-2.37-.59-2.96,0-4.14,2.37-7.11,8.29-7.11Zm445.98,247.57c0,6.51-4.14,9.48-10.07,9.48h-113.12l113.12,92.39c4.15,2.96,5.92,7.11,5.92,11.84v94.76c0,4.74-1.18,6.51-3.55,6.51-1.18,0-2.37-1.18-4.74-2.37l-177.09-147.48v148.07c0,7.11-3.55,10.07-10.07,10.07h-77.59c-6.51,0-9.48-2.96-9.48-9.47v-148.66L45.6,500.47c-1.78,1.18-2.96,2.37-4.14,2.37-2.37,0-2.37-1.78-2.37-5.92v-95.36c0-4.74.59-8.88,4.74-11.84l114.31-92.39H43.83c-6.51,0-9.48-2.96-9.48-9.48v-66.93c0-6.51,2.96-10.07,9.48-10.07h176.5V43.83c0-5.92,2.96-10.07,10.07-10.07h84.1c6.51,0,9.48,4.14,9.48,10.66v166.42h176.49c5.92,0,10.07,3.55,10.07,10.66v66.33Z"/>
    </g>
  </g>
</svg>